<mxfile host="Electron" modified="2023-12-08T20:50:00.317Z" agent="Mozilla/5.0 (Windows NT 10.0; Win64; x64) AppleWebKit/537.36 (KHTML, like Gecko) draw.io/22.1.2 Chrome/114.0.5735.289 Electron/25.9.4 Safari/537.36" etag="kWv9BhRzyTUEeu2bgBv3" version="22.1.2" type="device">
  <diagram name="Page-1" id="3Yl1iHnVn3RL4x3JiYpI">
    <mxGraphModel dx="1438" dy="2029" grid="1" gridSize="10" guides="1" tooltips="1" connect="1" arrows="1" fold="1" page="1" pageScale="1" pageWidth="827" pageHeight="1169" math="0" shadow="0">
      <root>
        <mxCell id="0" />
        <mxCell id="1" parent="0" />
        <mxCell id="JJP5QwFVt9YQhAo8LBSv-95" value="إلغاء الحجز" style="ellipse;whiteSpace=wrap;html=1;strokeWidth=1;fillColor=#fad9d5;strokeColor=#ae4132;fontSize=17;perimeterSpacing=0;" parent="1" vertex="1">
          <mxGeometry x="1057.9965865384615" y="2011.4168695521093" width="137.30769230769232" height="101.41719781797302" as="geometry" />
        </mxCell>
        <mxCell id="JJP5QwFVt9YQhAo8LBSv-100" value="Include" style="endArrow=open;endSize=12;dashed=1;html=1;rounded=0;fontSize=17;entryX=0;entryY=0.5;entryDx=0;entryDy=0;exitX=1;exitY=1;exitDx=0;exitDy=0;" parent="1" source="JJP5QwFVt9YQhAo8LBSv-93" target="JJP5QwFVt9YQhAo8LBSv-95" edge="1">
          <mxGeometry width="160" relative="1" as="geometry">
            <mxPoint x="967.9999999999999" y="2090" as="sourcePoint" />
            <mxPoint x="1068" y="2090" as="targetPoint" />
          </mxGeometry>
        </mxCell>
        <mxCell id="nWZj0fPjBAsxcXpvG3Y9-63" value="" style="group" parent="1" vertex="1" connectable="0">
          <mxGeometry x="1137.9970673076928" y="-216.44071138386437" width="137.30769230769232" height="101.41719781797302" as="geometry" />
        </mxCell>
        <mxCell id="nWZj0fPjBAsxcXpvG3Y9-64" value="إضافة فرع" style="ellipse;whiteSpace=wrap;html=1;strokeWidth=1;fillColor=#fad9d5;strokeColor=#ae4132;fontSize=17;perimeterSpacing=0;" parent="nWZj0fPjBAsxcXpvG3Y9-63" vertex="1">
          <mxGeometry width="137.30769230769232" height="101.41719781797302" as="geometry" />
        </mxCell>
        <mxCell id="eCUEvvWyq_-odF-Rzmus-8" value="إعادة تعيين كلمة المرور" style="ellipse;whiteSpace=wrap;html=1;strokeWidth=1;fillColor=#fad9d5;strokeColor=#ae4132;fontSize=17;perimeterSpacing=0;" parent="1" vertex="1">
          <mxGeometry x="1687.9953846153849" y="-837.0600925064599" width="137.30769230769232" height="101.41719781797302" as="geometry" />
        </mxCell>
        <mxCell id="eCUEvvWyq_-odF-Rzmus-9" value="نسيان كلمة المرور" style="ellipse;whiteSpace=wrap;html=1;strokeWidth=1;fillColor=#fad9d5;strokeColor=#ae4132;fontSize=17;perimeterSpacing=0;" parent="1" vertex="1">
          <mxGeometry x="1428.001105769231" y="-837.0564845104794" width="137.30769230769232" height="101.41719781797302" as="geometry" />
        </mxCell>
        <mxCell id="eCUEvvWyq_-odF-Rzmus-11" value="تسجيل الدخول لتطبيق الإدارة" style="ellipse;whiteSpace=wrap;html=1;strokeWidth=1;fillColor=#fad9d5;strokeColor=#ae4132;fontSize=17;perimeterSpacing=0;" parent="1" vertex="1">
          <mxGeometry x="1149.38375" y="-837.057519379845" width="137.30769230769232" height="101.41719781797302" as="geometry" />
        </mxCell>
        <mxCell id="eCUEvvWyq_-odF-Rzmus-13" value="إنشاء حساب موظف" style="ellipse;whiteSpace=wrap;html=1;strokeWidth=1;fillColor=#f8cecc;strokeColor=#b85450;fontSize=17;perimeterSpacing=0;" parent="1" vertex="1">
          <mxGeometry x="915.6394711538463" y="-837.0606239879414" width="137.30769230769232" height="101.41719781797302" as="geometry" />
        </mxCell>
        <mxCell id="eCUEvvWyq_-odF-Rzmus-72" style="edgeStyle=orthogonalEdgeStyle;rounded=0;orthogonalLoop=1;jettySize=auto;html=1;exitX=0.5;exitY=0.5;exitDx=0;exitDy=0;exitPerimeter=0;entryX=0.5;entryY=0;entryDx=0;entryDy=0;fillColor=#647687;strokeColor=#FF3333;" parent="1" source="eCUEvvWyq_-odF-Rzmus-21" target="eCUEvvWyq_-odF-Rzmus-13" edge="1">
          <mxGeometry relative="1" as="geometry">
            <Array as="points">
              <mxPoint x="472.8605769230769" y="-867.271565374677" />
              <mxPoint x="984.4134615384615" y="-867.271565374677" />
            </Array>
          </mxGeometry>
        </mxCell>
        <mxCell id="eCUEvvWyq_-odF-Rzmus-73" style="edgeStyle=orthogonalEdgeStyle;rounded=0;orthogonalLoop=1;jettySize=auto;html=1;exitX=1;exitY=0.3333333333333333;exitDx=0;exitDy=0;exitPerimeter=0;entryX=0;entryY=0;entryDx=0;entryDy=0;fillColor=#76608a;strokeColor=#0000CC;" parent="1" source="eCUEvvWyq_-odF-Rzmus-65" target="eCUEvvWyq_-odF-Rzmus-13" edge="1">
          <mxGeometry relative="1" as="geometry">
            <Array as="points">
              <mxPoint x="240" y="-349" />
              <mxPoint x="240" y="-550" />
              <mxPoint x="730" y="-550" />
              <mxPoint x="730" y="-840" />
              <mxPoint x="936" y="-840" />
            </Array>
          </mxGeometry>
        </mxCell>
        <mxCell id="eCUEvvWyq_-odF-Rzmus-74" style="edgeStyle=orthogonalEdgeStyle;rounded=0;orthogonalLoop=1;jettySize=auto;html=1;exitX=1;exitY=0.3333333333333333;exitDx=0;exitDy=0;exitPerimeter=0;entryX=0;entryY=0.5;entryDx=0;entryDy=0;" parent="1" source="eCUEvvWyq_-odF-Rzmus-67" target="eCUEvvWyq_-odF-Rzmus-13" edge="1">
          <mxGeometry relative="1" as="geometry">
            <Array as="points">
              <mxPoint x="744" y="-135" />
              <mxPoint x="744" y="-786" />
            </Array>
          </mxGeometry>
        </mxCell>
        <mxCell id="eCUEvvWyq_-odF-Rzmus-78" value="Include" style="endArrow=open;endSize=12;dashed=1;html=1;rounded=0;entryX=0;entryY=0.5;entryDx=0;entryDy=0;exitX=1;exitY=0.5;exitDx=0;exitDy=0;fontSize=17;" parent="1" source="eCUEvvWyq_-odF-Rzmus-13" target="eCUEvvWyq_-odF-Rzmus-11" edge="1">
          <mxGeometry width="160" relative="1" as="geometry">
            <mxPoint x="993.8533653846156" y="-756.958630490956" as="sourcePoint" />
            <mxPoint x="1137.6995192307695" y="-756.958630490956" as="targetPoint" />
          </mxGeometry>
        </mxCell>
        <mxCell id="nWZj0fPjBAsxcXpvG3Y9-18" value="" style="group" parent="1" vertex="1" connectable="0">
          <mxGeometry x="915.6370192307694" y="-686.1766704995694" width="605.2612980769229" height="104.21134510479473" as="geometry" />
        </mxCell>
        <mxCell id="eCUEvvWyq_-odF-Rzmus-10" value="تأكيد حساب الزبون" style="ellipse;whiteSpace=wrap;html=1;strokeWidth=1;fillColor=#fad9d5;strokeColor=#ae4132;fontSize=17;perimeterSpacing=0;" parent="nWZj0fPjBAsxcXpvG3Y9-18" vertex="1">
          <mxGeometry x="467.95360576923053" y="2.794147286821705" width="137.30769230769232" height="101.417197817973" as="geometry" />
        </mxCell>
        <mxCell id="eCUEvvWyq_-odF-Rzmus-12" value="تسجيل الدخول لتطبيق المطاعم" style="ellipse;whiteSpace=wrap;html=1;strokeWidth=1;fillColor=#fad9d5;strokeColor=#ae4132;fontSize=17;perimeterSpacing=0;" parent="nWZj0fPjBAsxcXpvG3Y9-18" vertex="1">
          <mxGeometry x="244.98144230769253" y="0.004139477462024908" width="137.30769230769232" height="101.417197817973" as="geometry" />
        </mxCell>
        <mxCell id="eCUEvvWyq_-odF-Rzmus-14" value="إنشاء حساب زبون" style="ellipse;whiteSpace=wrap;html=1;strokeWidth=1;fillColor=#fad9d5;strokeColor=#ae4132;fontSize=17;perimeterSpacing=0;" parent="nWZj0fPjBAsxcXpvG3Y9-18" vertex="1">
          <mxGeometry width="137.30769230769232" height="101.417197817973" as="geometry" />
        </mxCell>
        <mxCell id="nWZj0fPjBAsxcXpvG3Y9-7" value="Include" style="endArrow=open;endSize=12;dashed=1;html=1;rounded=0;exitX=1;exitY=0.5;exitDx=0;exitDy=0;fontSize=17;entryX=0;entryY=0.5;entryDx=0;entryDy=0;" parent="nWZj0fPjBAsxcXpvG3Y9-18" source="eCUEvvWyq_-odF-Rzmus-14" target="eCUEvvWyq_-odF-Rzmus-12" edge="1">
          <mxGeometry width="160" relative="1" as="geometry">
            <mxPoint x="374.89903846153845" y="-217.94038376399652" as="sourcePoint" />
            <mxPoint x="402.7692307692308" y="-117.35108143841515" as="targetPoint" />
          </mxGeometry>
        </mxCell>
        <mxCell id="nWZj0fPjBAsxcXpvG3Y9-9" value="Include" style="endArrow=open;endSize=12;dashed=1;html=1;rounded=0;exitX=1;exitY=0.5;exitDx=0;exitDy=0;fontSize=17;entryX=0;entryY=0.5;entryDx=0;entryDy=0;" parent="nWZj0fPjBAsxcXpvG3Y9-18" source="eCUEvvWyq_-odF-Rzmus-12" target="eCUEvvWyq_-odF-Rzmus-10" edge="1">
          <mxGeometry width="160" relative="1" as="geometry">
            <mxPoint x="146.54326923076923" y="59.61158006029284" as="sourcePoint" />
            <mxPoint x="253.52884615384616" y="59.61158006029284" as="targetPoint" />
          </mxGeometry>
        </mxCell>
        <mxCell id="nWZj0fPjBAsxcXpvG3Y9-25" value="استعراض المطاعم" style="ellipse;whiteSpace=wrap;html=1;strokeWidth=1;fillColor=#fad9d5;strokeColor=#ae4132;fontSize=17;perimeterSpacing=0;" parent="1" vertex="1">
          <mxGeometry x="910.6923076923077" y="-527.8416575796726" width="137.30769230769232" height="101.41719781797302" as="geometry" />
        </mxCell>
        <mxCell id="nWZj0fPjBAsxcXpvG3Y9-34" value="" style="group" parent="1" vertex="1" connectable="0">
          <mxGeometry x="1048.002451923077" y="-324.7961485931668" width="269.01927884615407" height="298.87027275337357" as="geometry" />
        </mxCell>
        <mxCell id="nWZj0fPjBAsxcXpvG3Y9-31" value="حذف مطعم" style="ellipse;whiteSpace=wrap;html=1;strokeWidth=1;fillColor=#fad9d5;strokeColor=#ae4132;fontSize=17;perimeterSpacing=0;" parent="nWZj0fPjBAsxcXpvG3Y9-34" vertex="1">
          <mxGeometry x="126.76687500000021" width="137.3076923076923" height="101.41719781797302" as="geometry" />
        </mxCell>
        <mxCell id="nWZj0fPjBAsxcXpvG3Y9-30" value="Include" style="endArrow=open;endSize=12;dashed=1;html=1;rounded=0;exitX=1;exitY=1;exitDx=0;exitDy=0;fontSize=17;entryX=0;entryY=0.5;entryDx=0;entryDy=0;" parent="1" source="nWZj0fPjBAsxcXpvG3Y9-25" target="nWZj0fPjBAsxcXpvG3Y9-31" edge="1">
          <mxGeometry width="160" relative="1" as="geometry">
            <mxPoint x="1079.8284134615387" y="-391.8567183462533" as="sourcePoint" />
            <mxPoint x="1345.0447596153845" y="-559.5055555555555" as="targetPoint" />
          </mxGeometry>
        </mxCell>
        <mxCell id="nWZj0fPjBAsxcXpvG3Y9-37" value="" style="group" parent="1" vertex="1" connectable="0">
          <mxGeometry x="1168.269278846154" y="-574.4066395492391" width="137.30769230769232" height="101.41719781797302" as="geometry" />
        </mxCell>
        <mxCell id="nWZj0fPjBAsxcXpvG3Y9-38" value="إضافة مطعم" style="ellipse;whiteSpace=wrap;html=1;strokeWidth=1;fillColor=#fad9d5;strokeColor=#ae4132;fontSize=17;perimeterSpacing=0;" parent="nWZj0fPjBAsxcXpvG3Y9-37" vertex="1">
          <mxGeometry width="137.30769230769232" height="101.41719781797302" as="geometry" />
        </mxCell>
        <mxCell id="nWZj0fPjBAsxcXpvG3Y9-39" value="Include" style="endArrow=open;endSize=12;dashed=1;html=1;rounded=0;exitX=0.969;exitY=0.331;exitDx=0;exitDy=0;fontSize=17;entryX=0;entryY=0.5;entryDx=0;entryDy=0;exitPerimeter=0;" parent="1" source="nWZj0fPjBAsxcXpvG3Y9-25" target="nWZj0fPjBAsxcXpvG3Y9-38" edge="1">
          <mxGeometry width="160" relative="1" as="geometry">
            <mxPoint x="1304.0216346153848" y="-775.5862790697674" as="sourcePoint" />
            <mxPoint x="1331.8918269230771" y="-674.996976744186" as="targetPoint" />
          </mxGeometry>
        </mxCell>
        <mxCell id="nWZj0fPjBAsxcXpvG3Y9-26" value="Include" style="endArrow=open;endSize=12;dashed=1;html=1;rounded=0;exitX=1;exitY=0.5;exitDx=0;exitDy=0;fontSize=17;entryX=0;entryY=0.5;entryDx=0;entryDy=0;" parent="1" source="nWZj0fPjBAsxcXpvG3Y9-25" target="nWZj0fPjBAsxcXpvG3Y9-24" edge="1">
          <mxGeometry width="160" relative="1" as="geometry">
            <mxPoint x="1024.4239423076924" y="-466.36627779213313" as="sourcePoint" />
            <mxPoint x="1247.1950996556639" y="-430.13704385228016" as="targetPoint" />
          </mxGeometry>
        </mxCell>
        <mxCell id="nWZj0fPjBAsxcXpvG3Y9-62" value="استعراض الفروع" style="ellipse;whiteSpace=wrap;html=1;strokeWidth=1;fillColor=#fad9d5;strokeColor=#ae4132;fontSize=17;perimeterSpacing=0;" parent="1" vertex="1">
          <mxGeometry x="910.693173076923" y="-350.043156287683" width="137.30769230769232" height="101.41719781797302" as="geometry" />
        </mxCell>
        <mxCell id="nWZj0fPjBAsxcXpvG3Y9-65" value="" style="group" parent="1" vertex="1" connectable="0">
          <mxGeometry x="1012.0801442307692" y="-156.43565763709432" width="137.30769230769232" height="101.41719781797302" as="geometry" />
        </mxCell>
        <mxCell id="nWZj0fPjBAsxcXpvG3Y9-66" value="حذف فرع" style="ellipse;whiteSpace=wrap;html=1;strokeWidth=1;fillColor=#fad9d5;strokeColor=#ae4132;fontSize=17;perimeterSpacing=0;" parent="nWZj0fPjBAsxcXpvG3Y9-65" vertex="1">
          <mxGeometry width="137.30769230769232" height="101.41719781797302" as="geometry" />
        </mxCell>
        <mxCell id="nWZj0fPjBAsxcXpvG3Y9-68" value="تعديل فرع" style="ellipse;whiteSpace=wrap;html=1;strokeWidth=1;fillColor=#fad9d5;strokeColor=#ae4132;fontSize=17;perimeterSpacing=0;" parent="1" vertex="1">
          <mxGeometry x="828.0040865384616" y="-146.43976616422606" width="137.30769230769232" height="101.41719781797302" as="geometry" />
        </mxCell>
        <mxCell id="nWZj0fPjBAsxcXpvG3Y9-69" value="Include" style="endArrow=open;endSize=12;dashed=1;html=1;rounded=0;exitX=1;exitY=1;exitDx=0;exitDy=0;fontSize=17;entryX=0;entryY=0.5;entryDx=0;entryDy=0;" parent="1" source="nWZj0fPjBAsxcXpvG3Y9-62" target="nWZj0fPjBAsxcXpvG3Y9-64" edge="1">
          <mxGeometry width="160" relative="1" as="geometry">
            <mxPoint x="932.7187499999999" y="7.7063436692506" as="sourcePoint" />
            <mxPoint x="1079.2620192307695" y="174.42379844961238" as="targetPoint" />
          </mxGeometry>
        </mxCell>
        <mxCell id="nWZj0fPjBAsxcXpvG3Y9-70" value="Include" style="endArrow=open;endSize=12;dashed=1;html=1;rounded=0;fontSize=17;entryX=0;entryY=0;entryDx=0;entryDy=0;exitX=0.5;exitY=1;exitDx=0;exitDy=0;" parent="1" source="nWZj0fPjBAsxcXpvG3Y9-62" target="nWZj0fPjBAsxcXpvG3Y9-66" edge="1">
          <mxGeometry width="160" relative="1" as="geometry">
            <mxPoint x="1058" y="-186.44000000000005" as="sourcePoint" />
            <mxPoint x="1162.8725961538462" y="55.206847545219716" as="targetPoint" />
          </mxGeometry>
        </mxCell>
        <mxCell id="nWZj0fPjBAsxcXpvG3Y9-71" value="Include" style="endArrow=open;endSize=12;dashed=1;html=1;rounded=0;fontSize=17;exitX=0;exitY=1;exitDx=0;exitDy=0;" parent="1" source="nWZj0fPjBAsxcXpvG3Y9-62" target="nWZj0fPjBAsxcXpvG3Y9-68" edge="1">
          <mxGeometry width="160" relative="1" as="geometry">
            <mxPoint x="1051.3918269230771" y="-58.42180878552972" as="sourcePoint" />
            <mxPoint x="1176.8076923076924" y="32.85366925064591" as="targetPoint" />
          </mxGeometry>
        </mxCell>
        <mxCell id="eCUEvvWyq_-odF-Rzmus-76" style="edgeStyle=orthogonalEdgeStyle;rounded=0;orthogonalLoop=1;jettySize=auto;html=1;exitX=1;exitY=0.3333333333333333;exitDx=0;exitDy=0;exitPerimeter=0;entryX=0;entryY=1;entryDx=0;entryDy=0;strokeColor=#00CC00;" parent="1" source="eCUEvvWyq_-odF-Rzmus-68" target="eCUEvvWyq_-odF-Rzmus-13" edge="1">
          <mxGeometry relative="1" as="geometry">
            <Array as="points">
              <mxPoint x="780" y="70" />
              <mxPoint x="780" y="-751" />
            </Array>
          </mxGeometry>
        </mxCell>
        <mxCell id="JJP5QwFVt9YQhAo8LBSv-1" value="Extends" style="endArrow=block;endSize=16;endFill=0;html=1;rounded=0;exitX=0;exitY=0.5;exitDx=0;exitDy=0;entryX=1;entryY=0.5;entryDx=0;entryDy=0;fontSize=17;dashed=1;" parent="1" source="eCUEvvWyq_-odF-Rzmus-9" target="eCUEvvWyq_-odF-Rzmus-11" edge="1">
          <mxGeometry width="160" relative="1" as="geometry">
            <mxPoint x="1088.2524038461538" y="-715.977803617571" as="sourcePoint" />
            <mxPoint x="1232.0985576923076" y="-715.977803617571" as="targetPoint" />
          </mxGeometry>
        </mxCell>
        <mxCell id="nWZj0fPjBAsxcXpvG3Y9-21" style="edgeStyle=orthogonalEdgeStyle;rounded=0;orthogonalLoop=1;jettySize=auto;html=1;exitX=0.75;exitY=0.1;exitDx=0;exitDy=0;exitPerimeter=0;entryX=0;entryY=0.5;entryDx=0;entryDy=0;fillColor=#e51400;strokeColor=#CC00CC;" parent="1" source="eCUEvvWyq_-odF-Rzmus-69" target="eCUEvvWyq_-odF-Rzmus-14" edge="1">
          <mxGeometry relative="1" as="geometry">
            <Array as="points">
              <mxPoint x="916" y="-643" />
            </Array>
          </mxGeometry>
        </mxCell>
        <mxCell id="JJP5QwFVt9YQhAo8LBSv-3" value="Extends" style="endArrow=block;endSize=16;endFill=0;html=1;rounded=0;exitX=0;exitY=0.5;exitDx=0;exitDy=0;entryX=1;entryY=0.5;entryDx=0;entryDy=0;fontSize=17;dashed=1;" parent="1" source="eCUEvvWyq_-odF-Rzmus-8" target="eCUEvvWyq_-odF-Rzmus-9" edge="1">
          <mxGeometry width="160" relative="1" as="geometry">
            <mxPoint x="1620.4831730769233" y="-745.7820413436692" as="sourcePoint" />
            <mxPoint x="1524.2860576923076" y="-745.7820413436692" as="targetPoint" />
          </mxGeometry>
        </mxCell>
        <mxCell id="JJP5QwFVt9YQhAo8LBSv-30" style="edgeStyle=orthogonalEdgeStyle;rounded=0;orthogonalLoop=1;jettySize=auto;html=1;exitX=1;exitY=0.3333333333333333;exitDx=0;exitDy=0;exitPerimeter=0;entryX=0;entryY=0;entryDx=0;entryDy=0;fillColor=#e51400;strokeColor=#CC00CC;" parent="1" source="eCUEvvWyq_-odF-Rzmus-69" target="nWZj0fPjBAsxcXpvG3Y9-25" edge="1">
          <mxGeometry relative="1" as="geometry" />
        </mxCell>
        <mxCell id="JJP5QwFVt9YQhAo8LBSv-37" value="" style="group" parent="1" vertex="1" connectable="0">
          <mxGeometry x="1128.0040865384617" y="263.558875179443" width="137.30769230769232" height="101.41719781797302" as="geometry" />
        </mxCell>
        <mxCell id="JJP5QwFVt9YQhAo8LBSv-38" value="إضافة قائمة" style="ellipse;whiteSpace=wrap;html=1;strokeWidth=1;fillColor=#fad9d5;strokeColor=#ae4132;fontSize=17;perimeterSpacing=0;" parent="JJP5QwFVt9YQhAo8LBSv-37" vertex="1">
          <mxGeometry width="137.30769230769232" height="101.41719781797302" as="geometry" />
        </mxCell>
        <mxCell id="JJP5QwFVt9YQhAo8LBSv-39" value="" style="group" parent="1" vertex="1" connectable="0">
          <mxGeometry x="1128.0071634615388" y="373.56392892621284" width="137.30769230769232" height="101.41719781797302" as="geometry" />
        </mxCell>
        <mxCell id="JJP5QwFVt9YQhAo8LBSv-40" value="تعديل قائمة" style="ellipse;whiteSpace=wrap;html=1;strokeWidth=1;fillColor=#fad9d5;strokeColor=#ae4132;fontSize=17;perimeterSpacing=0;" parent="JJP5QwFVt9YQhAo8LBSv-39" vertex="1">
          <mxGeometry width="137.30769230769232" height="101.41719781797302" as="geometry" />
        </mxCell>
        <mxCell id="JJP5QwFVt9YQhAo8LBSv-41" value="حذف قائمة" style="ellipse;whiteSpace=wrap;html=1;strokeWidth=1;fillColor=#fad9d5;strokeColor=#ae4132;fontSize=17;perimeterSpacing=0;" parent="1" vertex="1">
          <mxGeometry x="1138.0011057692313" y="611.0298203990812" width="137.30769230769232" height="101.41719781797302" as="geometry" />
        </mxCell>
        <mxCell id="JJP5QwFVt9YQhAo8LBSv-42" value="Include" style="endArrow=open;endSize=12;dashed=1;html=1;rounded=0;fontSize=17;exitX=1;exitY=1;exitDx=0;exitDy=0;" parent="1" source="JJP5QwFVt9YQhAo8LBSv-45" target="JJP5QwFVt9YQhAo8LBSv-41" edge="1">
          <mxGeometry width="160" relative="1" as="geometry">
            <mxPoint x="960.1588461538462" y="454.5577777777778" as="sourcePoint" />
            <mxPoint x="1085.5747115384615" y="545.8332558139534" as="targetPoint" />
          </mxGeometry>
        </mxCell>
        <mxCell id="JJP5QwFVt9YQhAo8LBSv-43" value="Include" style="endArrow=open;endSize=12;dashed=1;html=1;rounded=0;exitX=1;exitY=0.5;exitDx=0;exitDy=0;fontSize=17;entryX=0;entryY=0;entryDx=0;entryDy=0;" parent="1" source="JJP5QwFVt9YQhAo8LBSv-45" target="JJP5QwFVt9YQhAo8LBSv-40" edge="1">
          <mxGeometry width="160" relative="1" as="geometry">
            <mxPoint x="930.4905769230769" y="579.3630232558139" as="sourcePoint" />
            <mxPoint x="1071.6396153846154" y="568.186434108527" as="targetPoint" />
          </mxGeometry>
        </mxCell>
        <mxCell id="JJP5QwFVt9YQhAo8LBSv-44" value="Include" style="endArrow=open;endSize=12;dashed=1;html=1;rounded=0;exitX=1;exitY=0;exitDx=0;exitDy=0;fontSize=17;entryX=0;entryY=0.5;entryDx=0;entryDy=0;" parent="1" source="JJP5QwFVt9YQhAo8LBSv-45" target="JJP5QwFVt9YQhAo8LBSv-38" edge="1">
          <mxGeometry width="160" relative="1" as="geometry">
            <mxPoint x="841.4857692307693" y="520.6859302325579" as="sourcePoint" />
            <mxPoint x="988.0290384615386" y="687.4033850129199" as="targetPoint" />
          </mxGeometry>
        </mxCell>
        <mxCell id="JJP5QwFVt9YQhAo8LBSv-45" value="عرض القوائم" style="ellipse;whiteSpace=wrap;html=1;strokeWidth=1;fillColor=#fad9d5;strokeColor=#ae4132;fontSize=17;perimeterSpacing=0;" parent="1" vertex="1">
          <mxGeometry x="828.0001923076924" y="361.4164302756242" width="137.30769230769232" height="101.41719781797302" as="geometry" />
        </mxCell>
        <mxCell id="JJP5QwFVt9YQhAo8LBSv-46" value="عرض المنتجات" style="ellipse;whiteSpace=wrap;html=1;strokeWidth=1;fillColor=#fad9d5;strokeColor=#ae4132;fontSize=17;perimeterSpacing=0;" parent="1" vertex="1">
          <mxGeometry x="1142.1932692307691" y="486.63557756244586" width="137.30769230769232" height="101.41719781797302" as="geometry" />
        </mxCell>
        <mxCell id="JJP5QwFVt9YQhAo8LBSv-47" value="" style="group" parent="1" vertex="1" connectable="0">
          <mxGeometry x="1523.617163461539" y="361.4180224662646" width="137.30769230769232" height="101.41719781797302" as="geometry" />
        </mxCell>
        <mxCell id="JJP5QwFVt9YQhAo8LBSv-48" value="إضافة منتج" style="ellipse;whiteSpace=wrap;html=1;strokeWidth=1;fillColor=#fad9d5;strokeColor=#ae4132;fontSize=17;perimeterSpacing=0;" parent="JJP5QwFVt9YQhAo8LBSv-47" vertex="1">
          <mxGeometry width="137.30769230769232" height="101.41719781797302" as="geometry" />
        </mxCell>
        <mxCell id="JJP5QwFVt9YQhAo8LBSv-49" value="" style="group" parent="1" vertex="1" connectable="0">
          <mxGeometry x="1523.617163461539" y="486.63307621303466" width="137.30769230769232" height="101.41719781797302" as="geometry" />
        </mxCell>
        <mxCell id="JJP5QwFVt9YQhAo8LBSv-50" value="حذف منتج" style="ellipse;whiteSpace=wrap;html=1;strokeWidth=1;fillColor=#fad9d5;strokeColor=#ae4132;fontSize=17;perimeterSpacing=0;" parent="JJP5QwFVt9YQhAo8LBSv-49" vertex="1">
          <mxGeometry width="137.30769230769232" height="101.41719781797302" as="geometry" />
        </mxCell>
        <mxCell id="JJP5QwFVt9YQhAo8LBSv-51" value="Include" style="endArrow=open;endSize=12;dashed=1;html=1;rounded=0;exitX=1;exitY=0.5;exitDx=0;exitDy=0;fontSize=17;entryX=0;entryY=0;entryDx=0;entryDy=0;" parent="1" source="JJP5QwFVt9YQhAo8LBSv-46" target="JJP5QwFVt9YQhAo8LBSv-50" edge="1">
          <mxGeometry width="160" relative="1" as="geometry">
            <mxPoint x="1346.9536538461539" y="628.202170542635" as="sourcePoint" />
            <mxPoint x="1488.1026923076925" y="617.0255813953486" as="targetPoint" />
          </mxGeometry>
        </mxCell>
        <mxCell id="JJP5QwFVt9YQhAo8LBSv-52" value="Include" style="endArrow=open;endSize=12;dashed=1;html=1;rounded=0;exitX=1;exitY=0;exitDx=0;exitDy=0;fontSize=17;entryX=0;entryY=0.5;entryDx=0;entryDy=0;" parent="1" source="JJP5QwFVt9YQhAo8LBSv-46" target="JJP5QwFVt9YQhAo8LBSv-48" edge="1">
          <mxGeometry width="160" relative="1" as="geometry">
            <mxPoint x="1257.9488461538463" y="569.5250775193795" as="sourcePoint" />
            <mxPoint x="1404.4921153846153" y="736.2425322997415" as="targetPoint" />
          </mxGeometry>
        </mxCell>
        <mxCell id="JJP5QwFVt9YQhAo8LBSv-53" value="تعديل منتج" style="ellipse;whiteSpace=wrap;html=1;strokeWidth=1;fillColor=#fad9d5;strokeColor=#ae4132;fontSize=17;perimeterSpacing=0;" parent="1" vertex="1">
          <mxGeometry x="1523.617163461539" y="611.0285134223368" width="137.30769230769232" height="101.41719781797302" as="geometry" />
        </mxCell>
        <mxCell id="JJP5QwFVt9YQhAo8LBSv-54" value="Include" style="endArrow=open;endSize=12;dashed=1;html=1;rounded=0;fontSize=17;exitX=1;exitY=1;exitDx=0;exitDy=0;" parent="1" source="JJP5QwFVt9YQhAo8LBSv-46" target="JJP5QwFVt9YQhAo8LBSv-53" edge="1">
          <mxGeometry width="160" relative="1" as="geometry">
            <mxPoint x="1376.621923076923" y="503.39692506459915" as="sourcePoint" />
            <mxPoint x="1502.0377884615386" y="594.6724031007752" as="targetPoint" />
          </mxGeometry>
        </mxCell>
        <mxCell id="JJP5QwFVt9YQhAo8LBSv-55" value="عرض المجموعات" style="ellipse;whiteSpace=wrap;html=1;strokeWidth=1;fillColor=#fad9d5;strokeColor=#ae4132;fontSize=17;perimeterSpacing=0;" parent="1" vertex="1">
          <mxGeometry x="841.8865865384615" y="773.0809005598621" width="137.30769230769232" height="101.41719781797302" as="geometry" />
        </mxCell>
        <mxCell id="JJP5QwFVt9YQhAo8LBSv-56" value="" style="group" parent="1" vertex="1" connectable="0">
          <mxGeometry x="1113.8571634615387" y="733.5571697530863" width="137.30769230769232" height="101.41719781797302" as="geometry" />
        </mxCell>
        <mxCell id="JJP5QwFVt9YQhAo8LBSv-57" value="إضافة مجموعة" style="ellipse;whiteSpace=wrap;html=1;strokeWidth=1;fillColor=#fad9d5;strokeColor=#ae4132;fontSize=17;perimeterSpacing=0;" parent="JJP5QwFVt9YQhAo8LBSv-56" vertex="1">
          <mxGeometry width="137.30769230769232" height="101.41719781797302" as="geometry" />
        </mxCell>
        <mxCell id="JJP5QwFVt9YQhAo8LBSv-58" value="" style="group" parent="1" vertex="1" connectable="0">
          <mxGeometry x="1113.8571634615387" y="849.4583992104508" width="137.30769230769232" height="101.41719781797302" as="geometry" />
        </mxCell>
        <mxCell id="JJP5QwFVt9YQhAo8LBSv-59" value="حذف مجموعة" style="ellipse;whiteSpace=wrap;html=1;strokeWidth=1;fillColor=#fad9d5;strokeColor=#ae4132;fontSize=17;perimeterSpacing=0;" parent="JJP5QwFVt9YQhAo8LBSv-58" vertex="1">
          <mxGeometry width="137.30769230769232" height="101.41719781797302" as="geometry" />
        </mxCell>
        <mxCell id="JJP5QwFVt9YQhAo8LBSv-60" value="تعديل مجموعة" style="ellipse;whiteSpace=wrap;html=1;strokeWidth=1;fillColor=#fad9d5;strokeColor=#ae4132;fontSize=17;perimeterSpacing=0;" parent="1" vertex="1">
          <mxGeometry x="1113.8571634615387" y="966.4027769882287" width="137.30769230769232" height="101.41719781797302" as="geometry" />
        </mxCell>
        <mxCell id="JJP5QwFVt9YQhAo8LBSv-61" value="Include" style="endArrow=open;endSize=12;dashed=1;html=1;rounded=0;fontSize=17;exitX=1;exitY=1;exitDx=0;exitDy=0;" parent="1" source="JJP5QwFVt9YQhAo8LBSv-55" target="JJP5QwFVt9YQhAo8LBSv-60" edge="1">
          <mxGeometry width="160" relative="1" as="geometry">
            <mxPoint x="974.0452403846156" y="866.2222480620158" as="sourcePoint" />
            <mxPoint x="1099.461105769231" y="957.4977260981909" as="targetPoint" />
          </mxGeometry>
        </mxCell>
        <mxCell id="JJP5QwFVt9YQhAo8LBSv-62" value="Include" style="endArrow=open;endSize=12;dashed=1;html=1;rounded=0;exitX=1;exitY=0.5;exitDx=0;exitDy=0;fontSize=17;entryX=0;entryY=0;entryDx=0;entryDy=0;" parent="1" source="JJP5QwFVt9YQhAo8LBSv-55" target="JJP5QwFVt9YQhAo8LBSv-59" edge="1">
          <mxGeometry width="160" relative="1" as="geometry">
            <mxPoint x="944.3769711538461" y="991.0274935400516" as="sourcePoint" />
            <mxPoint x="1085.5260096153847" y="979.8509043927647" as="targetPoint" />
          </mxGeometry>
        </mxCell>
        <mxCell id="JJP5QwFVt9YQhAo8LBSv-63" value="Include" style="endArrow=open;endSize=12;dashed=1;html=1;rounded=0;exitX=1;exitY=0;exitDx=0;exitDy=0;fontSize=17;entryX=0;entryY=0.5;entryDx=0;entryDy=0;" parent="1" source="JJP5QwFVt9YQhAo8LBSv-55" target="JJP5QwFVt9YQhAo8LBSv-57" edge="1">
          <mxGeometry width="160" relative="1" as="geometry">
            <mxPoint x="855.3721634615384" y="932.3504005167961" as="sourcePoint" />
            <mxPoint x="1001.9154326923077" y="1099.0678552971576" as="targetPoint" />
          </mxGeometry>
        </mxCell>
        <mxCell id="JJP5QwFVt9YQhAo8LBSv-65" value="" style="group" parent="1" vertex="1" connectable="0">
          <mxGeometry x="1113.8571634615387" y="1083.5631387453345" width="137.30769230769232" height="101.41719781797302" as="geometry" />
        </mxCell>
        <mxCell id="JJP5QwFVt9YQhAo8LBSv-66" value="إنشاء حسم" style="ellipse;whiteSpace=wrap;html=1;strokeWidth=1;fillColor=#fad9d5;strokeColor=#ae4132;fontSize=17;perimeterSpacing=0;" parent="JJP5QwFVt9YQhAo8LBSv-65" vertex="1">
          <mxGeometry width="137.30769230769232" height="101.41719781797302" as="geometry" />
        </mxCell>
        <mxCell id="JJP5QwFVt9YQhAo8LBSv-67" value="عرض الحسومات" style="ellipse;whiteSpace=wrap;html=1;strokeWidth=1;fillColor=#fad9d5;strokeColor=#ae4132;fontSize=17;perimeterSpacing=0;" parent="1" vertex="1">
          <mxGeometry x="841.8865865384615" y="1123.0868695521094" width="137.30769230769232" height="101.41719781797302" as="geometry" />
        </mxCell>
        <mxCell id="JJP5QwFVt9YQhAo8LBSv-68" value="Include" style="endArrow=open;endSize=12;dashed=1;html=1;rounded=0;exitX=1;exitY=0;exitDx=0;exitDy=0;fontSize=17;entryX=0;entryY=0.5;entryDx=0;entryDy=0;" parent="1" source="JJP5QwFVt9YQhAo8LBSv-67" target="JJP5QwFVt9YQhAo8LBSv-66" edge="1">
          <mxGeometry width="160" relative="1" as="geometry">
            <mxPoint x="855.3721634615384" y="1282.3563695090434" as="sourcePoint" />
            <mxPoint x="1001.9154326923077" y="1449.0738242894058" as="targetPoint" />
          </mxGeometry>
        </mxCell>
        <mxCell id="JJP5QwFVt9YQhAo8LBSv-69" value="Include" style="endArrow=open;endSize=12;dashed=1;html=1;rounded=0;exitX=1;exitY=0.5;exitDx=0;exitDy=0;fontSize=17;entryX=0;entryY=0;entryDx=0;entryDy=0;" parent="1" source="JJP5QwFVt9YQhAo8LBSv-67" target="JJP5QwFVt9YQhAo8LBSv-71" edge="1">
          <mxGeometry width="160" relative="1" as="geometry">
            <mxPoint x="944.3769711538461" y="1341.0334625322998" as="sourcePoint" />
            <mxPoint x="1085.5260096153847" y="1329.8568733850125" as="targetPoint" />
          </mxGeometry>
        </mxCell>
        <mxCell id="JJP5QwFVt9YQhAo8LBSv-70" value="" style="group" parent="1" vertex="1" connectable="0">
          <mxGeometry x="1113.8571634615387" y="1199.4643682026986" width="137.30769230769232" height="101.41719781797302" as="geometry" />
        </mxCell>
        <mxCell id="JJP5QwFVt9YQhAo8LBSv-71" value="تعديل حسم" style="ellipse;whiteSpace=wrap;html=1;strokeWidth=1;fillColor=#fad9d5;strokeColor=#ae4132;fontSize=17;perimeterSpacing=0;" parent="JJP5QwFVt9YQhAo8LBSv-70" vertex="1">
          <mxGeometry width="137.30769230769232" height="101.41719781797302" as="geometry" />
        </mxCell>
        <mxCell id="JJP5QwFVt9YQhAo8LBSv-72" value="حذف حسم" style="ellipse;whiteSpace=wrap;html=1;strokeWidth=1;fillColor=#fad9d5;strokeColor=#ae4132;fontSize=17;perimeterSpacing=0;" parent="1" vertex="1">
          <mxGeometry x="1113.8571634615387" y="1316.4087459804764" width="137.30769230769232" height="101.41719781797302" as="geometry" />
        </mxCell>
        <mxCell id="JJP5QwFVt9YQhAo8LBSv-73" value="Include" style="endArrow=open;endSize=12;dashed=1;html=1;rounded=0;fontSize=17;exitX=1;exitY=1;exitDx=0;exitDy=0;" parent="1" source="JJP5QwFVt9YQhAo8LBSv-67" target="JJP5QwFVt9YQhAo8LBSv-72" edge="1">
          <mxGeometry width="160" relative="1" as="geometry">
            <mxPoint x="974.0452403846156" y="1216.2282170542635" as="sourcePoint" />
            <mxPoint x="1099.461105769231" y="1307.5036950904391" as="targetPoint" />
          </mxGeometry>
        </mxCell>
        <mxCell id="JJP5QwFVt9YQhAo8LBSv-79" value="Extends" style="endArrow=block;endSize=16;endFill=0;html=1;rounded=0;entryX=0.935;entryY=0.738;entryDx=0;entryDy=0;entryPerimeter=0;exitX=0;exitY=0;exitDx=0;exitDy=0;" parent="1" source="JJP5QwFVt9YQhAo8LBSv-46" target="JJP5QwFVt9YQhAo8LBSv-45" edge="1">
          <mxGeometry width="160" relative="1" as="geometry">
            <mxPoint x="1128" y="503.55999999999995" as="sourcePoint" />
            <mxPoint x="1158" y="363.55999999999995" as="targetPoint" />
          </mxGeometry>
        </mxCell>
        <mxCell id="JJP5QwFVt9YQhAo8LBSv-80" value="" style="group" parent="1" vertex="1" connectable="0">
          <mxGeometry x="1137.9971634615385" y="1433.5631387453345" width="137.30769230769232" height="101.41719781797302" as="geometry" />
        </mxCell>
        <mxCell id="JJP5QwFVt9YQhAo8LBSv-81" value="إنشاء طلب" style="ellipse;whiteSpace=wrap;html=1;strokeWidth=1;fillColor=#fad9d5;strokeColor=#ae4132;fontSize=17;perimeterSpacing=0;" parent="JJP5QwFVt9YQhAo8LBSv-80" vertex="1">
          <mxGeometry width="137.30769230769232" height="101.41719781797302" as="geometry" />
        </mxCell>
        <mxCell id="JJP5QwFVt9YQhAo8LBSv-82" value="Include" style="endArrow=open;endSize=12;dashed=1;html=1;rounded=0;exitX=1;exitY=0;exitDx=0;exitDy=0;fontSize=17;entryX=0;entryY=0.5;entryDx=0;entryDy=0;" parent="1" source="JJP5QwFVt9YQhAo8LBSv-83" target="JJP5QwFVt9YQhAo8LBSv-81" edge="1">
          <mxGeometry width="160" relative="1" as="geometry">
            <mxPoint x="855.3721634615384" y="1632.3563695090434" as="sourcePoint" />
            <mxPoint x="1001.9154326923077" y="1799.0738242894058" as="targetPoint" />
          </mxGeometry>
        </mxCell>
        <mxCell id="JJP5QwFVt9YQhAo8LBSv-83" value="عرض الطلبات" style="ellipse;whiteSpace=wrap;html=1;strokeWidth=1;fillColor=#fad9d5;strokeColor=#ae4132;fontSize=17;perimeterSpacing=0;" parent="1" vertex="1">
          <mxGeometry x="841.8865865384615" y="1473.0868695521094" width="137.30769230769232" height="101.41719781797302" as="geometry" />
        </mxCell>
        <mxCell id="JJP5QwFVt9YQhAo8LBSv-84" value="" style="group" parent="1" vertex="1" connectable="0">
          <mxGeometry x="1128.0071634615388" y="1549.4643682026986" width="137.30769230769232" height="101.41719781797302" as="geometry" />
        </mxCell>
        <mxCell id="JJP5QwFVt9YQhAo8LBSv-85" value="تعديل طلب" style="ellipse;whiteSpace=wrap;html=1;strokeWidth=1;fillColor=#fad9d5;strokeColor=#ae4132;fontSize=17;perimeterSpacing=0;" parent="JJP5QwFVt9YQhAo8LBSv-84" vertex="1">
          <mxGeometry width="137.30769230769232" height="101.41719781797302" as="geometry" />
        </mxCell>
        <mxCell id="JJP5QwFVt9YQhAo8LBSv-86" value="Include" style="endArrow=open;endSize=12;dashed=1;html=1;rounded=0;exitX=1;exitY=0.5;exitDx=0;exitDy=0;fontSize=17;entryX=0;entryY=0;entryDx=0;entryDy=0;" parent="1" source="JJP5QwFVt9YQhAo8LBSv-83" target="JJP5QwFVt9YQhAo8LBSv-85" edge="1">
          <mxGeometry width="160" relative="1" as="geometry">
            <mxPoint x="944.3769711538461" y="1691.0334625322998" as="sourcePoint" />
            <mxPoint x="1085.5260096153847" y="1679.8568733850125" as="targetPoint" />
          </mxGeometry>
        </mxCell>
        <mxCell id="JJP5QwFVt9YQhAo8LBSv-87" value="حذف طلب" style="ellipse;whiteSpace=wrap;html=1;strokeWidth=1;fillColor=#fad9d5;strokeColor=#ae4132;fontSize=17;perimeterSpacing=0;" parent="1" vertex="1">
          <mxGeometry x="1127.9971634615385" y="1659.998745980476" width="137.30769230769232" height="101.41719781797302" as="geometry" />
        </mxCell>
        <mxCell id="JJP5QwFVt9YQhAo8LBSv-88" value="Include" style="endArrow=open;endSize=12;dashed=1;html=1;rounded=0;fontSize=17;exitX=1;exitY=1;exitDx=0;exitDy=0;" parent="1" source="JJP5QwFVt9YQhAo8LBSv-83" target="JJP5QwFVt9YQhAo8LBSv-87" edge="1">
          <mxGeometry width="160" relative="1" as="geometry">
            <mxPoint x="974.0452403846156" y="1566.2282170542635" as="sourcePoint" />
            <mxPoint x="1099.461105769231" y="1657.5036950904391" as="targetPoint" />
          </mxGeometry>
        </mxCell>
        <mxCell id="JJP5QwFVt9YQhAo8LBSv-89" value="Include" style="endArrow=open;endSize=12;dashed=1;html=1;rounded=0;fontSize=17;exitX=0.5;exitY=1;exitDx=0;exitDy=0;entryX=0;entryY=0;entryDx=0;entryDy=0;" parent="1" source="JJP5QwFVt9YQhAo8LBSv-83" target="JJP5QwFVt9YQhAo8LBSv-90" edge="1">
          <mxGeometry width="160" relative="1" as="geometry">
            <mxPoint x="887.9999999999999" y="1620" as="sourcePoint" />
            <mxPoint x="1062" y="1743" as="targetPoint" />
          </mxGeometry>
        </mxCell>
        <mxCell id="JJP5QwFVt9YQhAo8LBSv-90" value="عرض تفاصيل&lt;br&gt;الطلب" style="ellipse;whiteSpace=wrap;html=1;strokeWidth=1;fillColor=#fad9d5;strokeColor=#ae4132;fontSize=17;perimeterSpacing=0;" parent="1" vertex="1">
          <mxGeometry x="1027.9971634615385" y="1749.9987459804765" width="137.30769230769232" height="101.41719781797302" as="geometry" />
        </mxCell>
        <mxCell id="JJP5QwFVt9YQhAo8LBSv-91" value="تعديل حالة&amp;nbsp;&lt;br&gt;الطلب" style="ellipse;whiteSpace=wrap;html=1;strokeWidth=1;fillColor=#fad9d5;strokeColor=#ae4132;fontSize=17;perimeterSpacing=0;" parent="1" vertex="1">
          <mxGeometry x="1265.307163461539" y="1749.9987459804765" width="137.30769230769232" height="101.41719781797302" as="geometry" />
        </mxCell>
        <mxCell id="JJP5QwFVt9YQhAo8LBSv-92" value="Include" style="endArrow=open;endSize=12;dashed=1;html=1;rounded=0;fontSize=17;entryX=0;entryY=0.5;entryDx=0;entryDy=0;" parent="1" source="JJP5QwFVt9YQhAo8LBSv-90" target="JJP5QwFVt9YQhAo8LBSv-91" edge="1">
          <mxGeometry width="160" relative="1" as="geometry">
            <mxPoint x="1142.19" y="1767.83" as="sourcePoint" />
            <mxPoint x="1230.19" y="1937.83" as="targetPoint" />
          </mxGeometry>
        </mxCell>
        <mxCell id="JJP5QwFVt9YQhAo8LBSv-225" value="طلب توصيل&amp;nbsp;&lt;br&gt;الطلب" style="ellipse;whiteSpace=wrap;html=1;strokeWidth=1;fillColor=#fad9d5;strokeColor=#ae4132;fontSize=17;perimeterSpacing=0;" parent="1" vertex="1">
          <mxGeometry x="1387.997163461539" y="1433.5587459804765" width="137.30769230769232" height="101.41719781797302" as="geometry" />
        </mxCell>
        <mxCell id="JJP5QwFVt9YQhAo8LBSv-102" value="&lt;font style=&quot;font-size: 17px;&quot;&gt;Extends&lt;/font&gt;" style="endArrow=block;endFill=0;html=1;rounded=0;entryX=1;entryY=0.5;entryDx=0;entryDy=0;exitX=0;exitY=0.5;exitDx=0;exitDy=0;dashed=1;" parent="1" source="JJP5QwFVt9YQhAo8LBSv-225" target="JJP5QwFVt9YQhAo8LBSv-81" edge="1">
          <mxGeometry width="160" relative="1" as="geometry">
            <mxPoint x="1458" y="1484" as="sourcePoint" />
            <mxPoint x="1458" y="1710" as="targetPoint" />
          </mxGeometry>
        </mxCell>
        <mxCell id="JJP5QwFVt9YQhAo8LBSv-226" value="تغيير حالة الطلب" style="ellipse;whiteSpace=wrap;html=1;strokeWidth=1;fillColor=#fad9d5;strokeColor=#ae4132;fontSize=17;perimeterSpacing=0;" parent="1" vertex="1">
          <mxGeometry x="1647.997163461539" y="1433.5587459804765" width="137.30769230769232" height="101.41719781797302" as="geometry" />
        </mxCell>
        <mxCell id="JJP5QwFVt9YQhAo8LBSv-227" value="تأكيد تم توصيل&amp;nbsp;&lt;br&gt;الطلب" style="ellipse;whiteSpace=wrap;html=1;strokeWidth=1;fillColor=#fad9d5;strokeColor=#ae4132;fontSize=17;perimeterSpacing=0;" parent="1" vertex="1">
          <mxGeometry x="1907.997163461539" y="1433.5587459804765" width="137.30769230769232" height="101.41719781797302" as="geometry" />
        </mxCell>
        <mxCell id="JJP5QwFVt9YQhAo8LBSv-229" value="Include" style="endArrow=open;endSize=12;dashed=1;html=1;rounded=0;fontSize=17;entryX=0;entryY=0.5;entryDx=0;entryDy=0;exitX=1;exitY=0.5;exitDx=0;exitDy=0;" parent="1" source="JJP5QwFVt9YQhAo8LBSv-225" target="JJP5QwFVt9YQhAo8LBSv-226" edge="1">
          <mxGeometry width="160" relative="1" as="geometry">
            <mxPoint x="1588" y="1540" as="sourcePoint" />
            <mxPoint x="1839.92" y="1590" as="targetPoint" />
          </mxGeometry>
        </mxCell>
        <mxCell id="JJP5QwFVt9YQhAo8LBSv-231" value="Include" style="endArrow=open;endSize=12;dashed=1;html=1;rounded=0;fontSize=17;entryX=0;entryY=0.5;entryDx=0;entryDy=0;exitX=1;exitY=0.5;exitDx=0;exitDy=0;" parent="1" source="JJP5QwFVt9YQhAo8LBSv-226" target="JJP5QwFVt9YQhAo8LBSv-227" edge="1">
          <mxGeometry width="160" relative="1" as="geometry">
            <mxPoint x="1535" y="1494" as="sourcePoint" />
            <mxPoint x="1658" y="1494" as="targetPoint" />
          </mxGeometry>
        </mxCell>
        <mxCell id="JJP5QwFVt9YQhAo8LBSv-232" value="" style="group" parent="1" vertex="1" connectable="0">
          <mxGeometry x="1647.9971634615385" y="1540.0031387453346" width="137.30769230769232" height="101.41719781797302" as="geometry" />
        </mxCell>
        <mxCell id="JJP5QwFVt9YQhAo8LBSv-233" value="الدفع نقدا" style="ellipse;whiteSpace=wrap;html=1;strokeWidth=1;fillColor=#fad9d5;strokeColor=#ae4132;fontSize=17;perimeterSpacing=0;" parent="JJP5QwFVt9YQhAo8LBSv-232" vertex="1">
          <mxGeometry width="137.30769230769232" height="101.41719781797302" as="geometry" />
        </mxCell>
        <mxCell id="JJP5QwFVt9YQhAo8LBSv-235" value="" style="group" parent="1" vertex="1" connectable="0">
          <mxGeometry x="1647.9971634615385" y="1650.8843682026982" width="137.30769230769232" height="101.41719781797302" as="geometry" />
        </mxCell>
        <mxCell id="JJP5QwFVt9YQhAo8LBSv-236" value="الدفع باستخدام&lt;br&gt;بطاقة بنكية" style="ellipse;whiteSpace=wrap;html=1;strokeWidth=1;fillColor=#fad9d5;strokeColor=#ae4132;fontSize=17;perimeterSpacing=0;" parent="JJP5QwFVt9YQhAo8LBSv-235" vertex="1">
          <mxGeometry width="137.30769230769232" height="101.41719781797302" as="geometry" />
        </mxCell>
        <mxCell id="JJP5QwFVt9YQhAo8LBSv-257" style="edgeStyle=orthogonalEdgeStyle;rounded=0;orthogonalLoop=1;jettySize=auto;html=1;exitX=0;exitY=0.5;exitDx=0;exitDy=0;entryX=1;entryY=0.5;entryDx=0;entryDy=0;" parent="1" source="JJP5QwFVt9YQhAo8LBSv-237" target="JJP5QwFVt9YQhAo8LBSv-249" edge="1">
          <mxGeometry relative="1" as="geometry" />
        </mxCell>
        <mxCell id="JJP5QwFVt9YQhAo8LBSv-237" value="الدفع الإلكتروني" style="ellipse;whiteSpace=wrap;html=1;strokeWidth=1;fillColor=#fad9d5;strokeColor=#ae4132;fontSize=17;perimeterSpacing=0;" parent="1" vertex="1">
          <mxGeometry x="1647.9971634615385" y="1769.9987459804765" width="137.30769230769232" height="101.41719781797302" as="geometry" />
        </mxCell>
        <mxCell id="JJP5QwFVt9YQhAo8LBSv-249" value="إنشاء دفعة" style="ellipse;whiteSpace=wrap;html=1;strokeWidth=1;fillColor=#fad9d5;strokeColor=#ae4132;fontSize=17;perimeterSpacing=0;" parent="1" vertex="1">
          <mxGeometry x="1387.997163461539" y="1650.8887459804764" width="137.30769230769232" height="101.41719781797302" as="geometry" />
        </mxCell>
        <mxCell id="JJP5QwFVt9YQhAo8LBSv-248" value="&lt;font style=&quot;font-size: 17px;&quot;&gt;include&lt;/font&gt;" style="endArrow=open;endSize=12;dashed=1;html=1;rounded=0;entryX=0;entryY=0;entryDx=0;entryDy=0;" parent="1" source="JJP5QwFVt9YQhAo8LBSv-81" target="JJP5QwFVt9YQhAo8LBSv-249" edge="1">
          <mxGeometry width="160" relative="1" as="geometry">
            <mxPoint x="1328" y="1640" as="sourcePoint" />
            <mxPoint x="1388" y="1610" as="targetPoint" />
          </mxGeometry>
        </mxCell>
        <mxCell id="JJP5QwFVt9YQhAo8LBSv-258" style="edgeStyle=orthogonalEdgeStyle;rounded=0;orthogonalLoop=1;jettySize=auto;html=1;exitX=0;exitY=0.5;exitDx=0;exitDy=0;entryX=1;entryY=0.5;entryDx=0;entryDy=0;" parent="1" source="JJP5QwFVt9YQhAo8LBSv-236" target="JJP5QwFVt9YQhAo8LBSv-249" edge="1">
          <mxGeometry relative="1" as="geometry" />
        </mxCell>
        <mxCell id="JJP5QwFVt9YQhAo8LBSv-259" style="edgeStyle=orthogonalEdgeStyle;rounded=0;orthogonalLoop=1;jettySize=auto;html=1;exitX=0;exitY=0.5;exitDx=0;exitDy=0;entryX=1;entryY=0.5;entryDx=0;entryDy=0;" parent="1" source="JJP5QwFVt9YQhAo8LBSv-233" target="JJP5QwFVt9YQhAo8LBSv-249" edge="1">
          <mxGeometry relative="1" as="geometry" />
        </mxCell>
        <mxCell id="JJP5QwFVt9YQhAo8LBSv-94" value="حجز" style="ellipse;whiteSpace=wrap;html=1;strokeWidth=1;fillColor=#fad9d5;strokeColor=#ae4132;fontSize=17;perimeterSpacing=0;" parent="1" vertex="1">
          <mxGeometry x="1052.9465865384618" y="1859.9968695521093" width="137.30769230769232" height="101.41719781797302" as="geometry" />
        </mxCell>
        <mxCell id="JJP5QwFVt9YQhAo8LBSv-93" value="عرض الحجوزات" style="ellipse;whiteSpace=wrap;html=1;strokeWidth=1;fillColor=#fad9d5;strokeColor=#ae4132;fontSize=17;perimeterSpacing=0;" parent="1" vertex="1">
          <mxGeometry x="841.8865865384615" y="1941.9968695521093" width="137.30769230769232" height="101.41719781797302" as="geometry" />
        </mxCell>
        <mxCell id="JJP5QwFVt9YQhAo8LBSv-96" value="Include" style="endArrow=open;endSize=12;dashed=1;html=1;rounded=0;fontSize=17;exitX=1;exitY=0;exitDx=0;exitDy=0;" parent="1" source="JJP5QwFVt9YQhAo8LBSv-93" target="JJP5QwFVt9YQhAo8LBSv-94" edge="1">
          <mxGeometry width="160" relative="1" as="geometry">
            <mxPoint x="1190.25" y="1851.42" as="sourcePoint" />
            <mxPoint x="1327.25" y="2041.42" as="targetPoint" />
          </mxGeometry>
        </mxCell>
        <mxCell id="JJP5QwFVt9YQhAo8LBSv-277" value="عرض الفواتير" style="ellipse;whiteSpace=wrap;html=1;strokeWidth=1;fillColor=#fad9d5;strokeColor=#ae4132;fontSize=17;perimeterSpacing=0;" parent="1" vertex="1">
          <mxGeometry x="828.0065865384616" y="2159.9968695521093" width="137.30769230769232" height="101.41719781797302" as="geometry" />
        </mxCell>
        <mxCell id="JJP5QwFVt9YQhAo8LBSv-278" value="Include" style="endArrow=open;endSize=12;dashed=1;html=1;rounded=0;fontSize=17;exitX=1;exitY=0.5;exitDx=0;exitDy=0;" parent="1" source="JJP5QwFVt9YQhAo8LBSv-277" target="JJP5QwFVt9YQhAo8LBSv-279" edge="1">
          <mxGeometry width="160" relative="1" as="geometry">
            <mxPoint x="1195.3000000000002" y="2151.42" as="sourcePoint" />
            <mxPoint x="1332.3000000000002" y="2341.42" as="targetPoint" />
          </mxGeometry>
        </mxCell>
        <mxCell id="JJP5QwFVt9YQhAo8LBSv-279" value="عرض تفاصيل فاتورة" style="ellipse;whiteSpace=wrap;html=1;strokeWidth=1;fillColor=#fad9d5;strokeColor=#ae4132;fontSize=17;perimeterSpacing=0;" parent="1" vertex="1">
          <mxGeometry x="1057.9965865384615" y="2159.9968695521093" width="137.30769230769232" height="101.41719781797302" as="geometry" />
        </mxCell>
        <mxCell id="JJP5QwFVt9YQhAo8LBSv-282" value="عرض تقارير" style="ellipse;whiteSpace=wrap;html=1;strokeWidth=1;fillColor=#fad9d5;strokeColor=#ae4132;fontSize=17;perimeterSpacing=0;" parent="1" vertex="1">
          <mxGeometry x="828.0065865384616" y="2475.9968695521093" width="137.30769230769232" height="101.41719781797302" as="geometry" />
        </mxCell>
        <mxCell id="JJP5QwFVt9YQhAo8LBSv-291" style="edgeStyle=orthogonalEdgeStyle;rounded=0;orthogonalLoop=1;jettySize=auto;html=1;entryX=1;entryY=0.5;entryDx=0;entryDy=0;" parent="1" source="JJP5QwFVt9YQhAo8LBSv-283" target="JJP5QwFVt9YQhAo8LBSv-282" edge="1">
          <mxGeometry relative="1" as="geometry" />
        </mxCell>
        <mxCell id="JJP5QwFVt9YQhAo8LBSv-283" value="عرض تقارير&lt;br&gt;الفواتير" style="ellipse;whiteSpace=wrap;html=1;strokeWidth=1;fillColor=#fad9d5;strokeColor=#ae4132;fontSize=17;perimeterSpacing=0;" parent="1" vertex="1">
          <mxGeometry x="1057.9965865384615" y="2289.9968695521093" width="137.30769230769232" height="101.41719781797302" as="geometry" />
        </mxCell>
        <mxCell id="JJP5QwFVt9YQhAo8LBSv-287" value="" style="edgeStyle=orthogonalEdgeStyle;rounded=0;orthogonalLoop=1;jettySize=auto;html=1;" parent="1" source="JJP5QwFVt9YQhAo8LBSv-284" target="JJP5QwFVt9YQhAo8LBSv-282" edge="1">
          <mxGeometry relative="1" as="geometry" />
        </mxCell>
        <mxCell id="JJP5QwFVt9YQhAo8LBSv-284" value="عرض تقارير&amp;nbsp;&lt;br&gt;المخزون" style="ellipse;whiteSpace=wrap;html=1;strokeWidth=1;fillColor=#fad9d5;strokeColor=#ae4132;fontSize=17;perimeterSpacing=0;" parent="1" vertex="1">
          <mxGeometry x="1057.9965865384615" y="2419.9968695521093" width="137.30769230769232" height="101.41719781797302" as="geometry" />
        </mxCell>
        <mxCell id="JJP5QwFVt9YQhAo8LBSv-288" value="" style="edgeStyle=orthogonalEdgeStyle;rounded=0;orthogonalLoop=1;jettySize=auto;html=1;" parent="1" source="JJP5QwFVt9YQhAo8LBSv-285" target="JJP5QwFVt9YQhAo8LBSv-282" edge="1">
          <mxGeometry relative="1" as="geometry" />
        </mxCell>
        <mxCell id="JJP5QwFVt9YQhAo8LBSv-285" value="عرض تقارير&lt;br&gt;الحجوزات" style="ellipse;whiteSpace=wrap;html=1;strokeWidth=1;fillColor=#fad9d5;strokeColor=#ae4132;fontSize=17;perimeterSpacing=0;" parent="1" vertex="1">
          <mxGeometry x="1057.9965865384615" y="2549.9968695521093" width="137.30769230769232" height="101.41719781797302" as="geometry" />
        </mxCell>
        <mxCell id="JJP5QwFVt9YQhAo8LBSv-289" style="edgeStyle=orthogonalEdgeStyle;rounded=0;orthogonalLoop=1;jettySize=auto;html=1;entryX=1;entryY=0.5;entryDx=0;entryDy=0;" parent="1" source="JJP5QwFVt9YQhAo8LBSv-286" target="JJP5QwFVt9YQhAo8LBSv-282" edge="1">
          <mxGeometry relative="1" as="geometry" />
        </mxCell>
        <mxCell id="JJP5QwFVt9YQhAo8LBSv-286" value="عرض تقارير&amp;nbsp;&lt;br&gt;الطلبات" style="ellipse;whiteSpace=wrap;html=1;strokeWidth=1;fillColor=#fad9d5;strokeColor=#ae4132;fontSize=17;perimeterSpacing=0;" parent="1" vertex="1">
          <mxGeometry x="1057.9965865384615" y="2679.9968695521093" width="137.30769230769232" height="101.41719781797302" as="geometry" />
        </mxCell>
        <mxCell id="JJP5QwFVt9YQhAo8LBSv-298" value="" style="swimlane;startSize=0;fillColor=#FFE6CC;strokeColor=#000000;strokeWidth=3;" parent="1" vertex="1">
          <mxGeometry x="495.27" y="-1110" width="1580" height="4250" as="geometry" />
        </mxCell>
        <mxCell id="eCUEvvWyq_-odF-Rzmus-4" value="&lt;font style=&quot;font-size: 32px;&quot;&gt;Restaurant Management System&lt;/font&gt;" style="text;html=1;strokeColor=none;fillColor=none;align=center;verticalAlign=middle;whiteSpace=wrap;rounded=0;movable=1;resizable=1;rotatable=1;deletable=1;editable=1;locked=0;connectable=1;" parent="JJP5QwFVt9YQhAo8LBSv-298" vertex="1">
          <mxGeometry x="488.8206250000002" y="50.003370025839786" width="602.3557692307693" height="27.941472868217055" as="geometry" />
        </mxCell>
        <mxCell id="nWZj0fPjBAsxcXpvG3Y9-36" value="" style="group" parent="JJP5QwFVt9YQhAo8LBSv-298" vertex="1" connectable="0">
          <mxGeometry x="672.9992788461541" y="658.5358410709159" width="137.30769230769232" height="101.41719781797302" as="geometry" />
        </mxCell>
        <mxCell id="nWZj0fPjBAsxcXpvG3Y9-24" value="تعديل مطعم" style="ellipse;whiteSpace=wrap;html=1;strokeWidth=1;fillColor=#fad9d5;strokeColor=#ae4132;fontSize=17;perimeterSpacing=0;" parent="nWZj0fPjBAsxcXpvG3Y9-36" vertex="1">
          <mxGeometry width="137.30769230769232" height="101.41719781797302" as="geometry" />
        </mxCell>
        <mxCell id="JJP5QwFVt9YQhAo8LBSv-11" value="عرض الموظفين" style="ellipse;whiteSpace=wrap;html=1;strokeWidth=1;fillColor=#fad9d5;strokeColor=#ae4132;fontSize=17;perimeterSpacing=0;" parent="JJP5QwFVt9YQhAo8LBSv-298" vertex="1">
          <mxGeometry x="344.7331730769232" y="1169.9976555986218" width="137.30769230769232" height="101.41719781797302" as="geometry" />
        </mxCell>
        <mxCell id="JJP5QwFVt9YQhAo8LBSv-16" value="عرض صلاحيات" style="ellipse;whiteSpace=wrap;html=1;strokeWidth=1;fillColor=#fad9d5;strokeColor=#ae4132;fontSize=17;perimeterSpacing=0;" parent="JJP5QwFVt9YQhAo8LBSv-298" vertex="1">
          <mxGeometry x="876.2019230769233" y="1116.6761827304047" width="137.30769230769232" height="101.41719781797302" as="geometry" />
        </mxCell>
        <mxCell id="JJP5QwFVt9YQhAo8LBSv-15" value="حذف موظف" style="ellipse;whiteSpace=wrap;html=1;strokeWidth=1;fillColor=#fad9d5;strokeColor=#ae4132;fontSize=17;perimeterSpacing=0;" parent="JJP5QwFVt9YQhAo8LBSv-298" vertex="1">
          <mxGeometry x="824.7269230769234" y="1008.9988183893195" width="137.30769230769232" height="101.41719781797302" as="geometry" />
        </mxCell>
        <mxCell id="JJP5QwFVt9YQhAo8LBSv-301" style="edgeStyle=orthogonalEdgeStyle;rounded=0;orthogonalLoop=1;jettySize=auto;html=1;exitX=0.5;exitY=0.5;exitDx=0;exitDy=0;exitPerimeter=0;entryX=0;entryY=0.5;entryDx=0;entryDy=0;strokeColor=#990099;" parent="1" source="eCUEvvWyq_-odF-Rzmus-69" target="JJP5QwFVt9YQhAo8LBSv-45" edge="1">
          <mxGeometry relative="1" as="geometry">
            <Array as="points">
              <mxPoint x="520" y="-583" />
              <mxPoint x="520" y="412" />
            </Array>
          </mxGeometry>
        </mxCell>
        <mxCell id="JJP5QwFVt9YQhAo8LBSv-302" style="edgeStyle=orthogonalEdgeStyle;rounded=0;orthogonalLoop=1;jettySize=auto;html=1;exitX=0.5;exitY=0.5;exitDx=0;exitDy=0;exitPerimeter=0;entryX=0;entryY=0.5;entryDx=0;entryDy=0;strokeColor=#990099;" parent="1" source="eCUEvvWyq_-odF-Rzmus-69" target="JJP5QwFVt9YQhAo8LBSv-55" edge="1">
          <mxGeometry relative="1" as="geometry" />
        </mxCell>
        <mxCell id="JJP5QwFVt9YQhAo8LBSv-303" style="edgeStyle=orthogonalEdgeStyle;rounded=0;orthogonalLoop=1;jettySize=auto;html=1;exitX=0.5;exitY=0.5;exitDx=0;exitDy=0;exitPerimeter=0;entryX=0;entryY=0.5;entryDx=0;entryDy=0;strokeColor=#990099;" parent="1" source="eCUEvvWyq_-odF-Rzmus-69" target="JJP5QwFVt9YQhAo8LBSv-67" edge="1">
          <mxGeometry relative="1" as="geometry" />
        </mxCell>
        <mxCell id="JJP5QwFVt9YQhAo8LBSv-304" style="edgeStyle=orthogonalEdgeStyle;rounded=0;orthogonalLoop=1;jettySize=auto;html=1;exitX=0.5;exitY=0.5;exitDx=0;exitDy=0;exitPerimeter=0;entryX=0;entryY=0.5;entryDx=0;entryDy=0;strokeColor=#990099;" parent="1" source="eCUEvvWyq_-odF-Rzmus-69" target="JJP5QwFVt9YQhAo8LBSv-83" edge="1">
          <mxGeometry relative="1" as="geometry">
            <Array as="points">
              <mxPoint x="360" y="-583" />
              <mxPoint x="360" y="1524" />
            </Array>
          </mxGeometry>
        </mxCell>
        <mxCell id="JJP5QwFVt9YQhAo8LBSv-306" style="edgeStyle=orthogonalEdgeStyle;rounded=0;orthogonalLoop=1;jettySize=auto;html=1;exitX=0.5;exitY=0.5;exitDx=0;exitDy=0;exitPerimeter=0;entryX=0;entryY=0.5;entryDx=0;entryDy=0;fillColor=#76608a;strokeColor=#990099;" parent="1" source="eCUEvvWyq_-odF-Rzmus-69" target="JJP5QwFVt9YQhAo8LBSv-93" edge="1">
          <mxGeometry relative="1" as="geometry">
            <Array as="points">
              <mxPoint x="410" y="-583" />
              <mxPoint x="410" y="1993" />
            </Array>
          </mxGeometry>
        </mxCell>
        <mxCell id="JJP5QwFVt9YQhAo8LBSv-307" style="edgeStyle=orthogonalEdgeStyle;rounded=0;orthogonalLoop=1;jettySize=auto;html=1;exitX=0.5;exitY=0.5;exitDx=0;exitDy=0;exitPerimeter=0;entryX=0;entryY=0.5;entryDx=0;entryDy=0;strokeColor=#CC00CC;" parent="1" source="eCUEvvWyq_-odF-Rzmus-69" target="JJP5QwFVt9YQhAo8LBSv-277" edge="1">
          <mxGeometry relative="1" as="geometry">
            <Array as="points">
              <mxPoint x="460" y="-583" />
              <mxPoint x="460" y="2211" />
            </Array>
          </mxGeometry>
        </mxCell>
        <mxCell id="JJP5QwFVt9YQhAo8LBSv-309" style="edgeStyle=orthogonalEdgeStyle;rounded=0;orthogonalLoop=1;jettySize=auto;html=1;exitX=1;exitY=0.3333333333333333;exitDx=0;exitDy=0;exitPerimeter=0;entryX=0;entryY=0.5;entryDx=0;entryDy=0;strokeColor=#990099;" parent="1" source="eCUEvvWyq_-odF-Rzmus-69" target="nWZj0fPjBAsxcXpvG3Y9-62" edge="1">
          <mxGeometry relative="1" as="geometry" />
        </mxCell>
        <mxCell id="Iq0m3MXC-721eSM63ZU_-10" style="edgeStyle=orthogonalEdgeStyle;rounded=0;orthogonalLoop=1;jettySize=auto;html=1;exitX=0.5;exitY=0.5;exitDx=0;exitDy=0;exitPerimeter=0;entryX=0;entryY=0;entryDx=0;entryDy=0;strokeColor=#FF3333;" edge="1" parent="1" source="eCUEvvWyq_-odF-Rzmus-21" target="nWZj0fPjBAsxcXpvG3Y9-38">
          <mxGeometry relative="1" as="geometry">
            <Array as="points">
              <mxPoint x="680" y="-825" />
              <mxPoint x="680" y="-580" />
              <mxPoint x="1188" y="-580" />
            </Array>
          </mxGeometry>
        </mxCell>
        <mxCell id="Iq0m3MXC-721eSM63ZU_-26" style="edgeStyle=orthogonalEdgeStyle;rounded=0;orthogonalLoop=1;jettySize=auto;html=1;exitX=0.5;exitY=0.5;exitDx=0;exitDy=0;exitPerimeter=0;entryX=0;entryY=0;entryDx=0;entryDy=0;strokeColor=#FF3333;" edge="1" parent="1" source="eCUEvvWyq_-odF-Rzmus-21" target="nWZj0fPjBAsxcXpvG3Y9-24">
          <mxGeometry relative="1" as="geometry">
            <Array as="points">
              <mxPoint x="710" y="-825" />
              <mxPoint x="710" y="-540" />
              <mxPoint x="1140" y="-540" />
              <mxPoint x="1140" y="-436" />
            </Array>
          </mxGeometry>
        </mxCell>
        <mxCell id="Iq0m3MXC-721eSM63ZU_-27" style="edgeStyle=orthogonalEdgeStyle;rounded=0;orthogonalLoop=1;jettySize=auto;html=1;exitX=0.5;exitY=0.5;exitDx=0;exitDy=0;exitPerimeter=0;entryX=0;entryY=0;entryDx=0;entryDy=0;strokeColor=#FF3333;" edge="1" parent="1" source="eCUEvvWyq_-odF-Rzmus-21" target="nWZj0fPjBAsxcXpvG3Y9-31">
          <mxGeometry relative="1" as="geometry">
            <Array as="points">
              <mxPoint x="650" y="-825" />
              <mxPoint x="650" y="-380" />
              <mxPoint x="1150" y="-380" />
              <mxPoint x="1150" y="-310" />
            </Array>
          </mxGeometry>
        </mxCell>
        <mxCell id="Iq0m3MXC-721eSM63ZU_-28" style="edgeStyle=orthogonalEdgeStyle;rounded=0;orthogonalLoop=1;jettySize=auto;html=1;exitX=1;exitY=1;exitDx=0;exitDy=0;exitPerimeter=0;entryX=0;entryY=0;entryDx=0;entryDy=0;strokeColor=#FF3333;" edge="1" parent="1" source="eCUEvvWyq_-odF-Rzmus-21" target="nWZj0fPjBAsxcXpvG3Y9-64">
          <mxGeometry relative="1" as="geometry">
            <Array as="points">
              <mxPoint x="270" y="-751" />
              <mxPoint x="270" y="-420" />
              <mxPoint x="1060" y="-420" />
              <mxPoint x="1060" y="-260" />
              <mxPoint x="1158" y="-260" />
            </Array>
          </mxGeometry>
        </mxCell>
        <mxCell id="Iq0m3MXC-721eSM63ZU_-29" style="edgeStyle=orthogonalEdgeStyle;rounded=0;orthogonalLoop=1;jettySize=auto;html=1;exitX=1;exitY=1;exitDx=0;exitDy=0;exitPerimeter=0;entryX=0;entryY=0;entryDx=0;entryDy=0;strokeColor=#FF3333;" edge="1" parent="1" source="eCUEvvWyq_-odF-Rzmus-21" target="nWZj0fPjBAsxcXpvG3Y9-66">
          <mxGeometry relative="1" as="geometry">
            <Array as="points">
              <mxPoint x="230" y="-751" />
              <mxPoint x="230" y="-454" />
              <mxPoint x="890" y="-454" />
              <mxPoint x="890" y="-220" />
              <mxPoint x="1032" y="-220" />
            </Array>
          </mxGeometry>
        </mxCell>
        <mxCell id="Iq0m3MXC-721eSM63ZU_-30" style="edgeStyle=orthogonalEdgeStyle;rounded=0;orthogonalLoop=1;jettySize=auto;html=1;exitX=1;exitY=1;exitDx=0;exitDy=0;exitPerimeter=0;entryX=0;entryY=0;entryDx=0;entryDy=0;strokeColor=#FF3333;" edge="1" parent="1" source="eCUEvvWyq_-odF-Rzmus-21" target="nWZj0fPjBAsxcXpvG3Y9-68">
          <mxGeometry relative="1" as="geometry">
            <Array as="points">
              <mxPoint x="198" y="-380" />
              <mxPoint x="848" y="-380" />
            </Array>
          </mxGeometry>
        </mxCell>
        <mxCell id="Iq0m3MXC-721eSM63ZU_-37" style="edgeStyle=orthogonalEdgeStyle;rounded=0;orthogonalLoop=1;jettySize=auto;html=1;exitX=0.5;exitY=0.5;exitDx=0;exitDy=0;exitPerimeter=0;entryX=0;entryY=0.5;entryDx=0;entryDy=0;strokeColor=#FF3333;" edge="1" parent="1" source="eCUEvvWyq_-odF-Rzmus-21" target="JJP5QwFVt9YQhAo8LBSv-11">
          <mxGeometry relative="1" as="geometry">
            <Array as="points">
              <mxPoint x="590" y="-825" />
              <mxPoint x="590" y="111" />
            </Array>
          </mxGeometry>
        </mxCell>
        <mxCell id="eCUEvvWyq_-odF-Rzmus-21" value="Manager" style="shape=umlActor;verticalLabelPosition=bottom;verticalAlign=top;html=1;strokeWidth=3;fontSize=18;strokeColor=#FF3333;" parent="1" vertex="1">
          <mxGeometry x="135.39423076923077" y="-900.0019788113696" width="62.932692307692314" height="149.02118863049097" as="geometry" />
        </mxCell>
        <mxCell id="eCUEvvWyq_-odF-Rzmus-69" value="Customer" style="shape=umlActor;verticalLabelPosition=bottom;verticalAlign=top;html=1;strokeWidth=3;fontSize=18;strokeColor=#CC00CC;" parent="1" vertex="1">
          <mxGeometry x="135.39423076923077" y="-657.8425472868217" width="62.932692307692314" height="149.02118863049097" as="geometry" />
        </mxCell>
        <mxCell id="Iq0m3MXC-721eSM63ZU_-2" value="Bank" style="shape=umlActor;verticalLabelPosition=bottom;verticalAlign=top;html=1;strokeWidth=3;fontSize=18;" vertex="1" parent="1">
          <mxGeometry x="2210" y="-890.0002733850129" width="62.932692307692314" height="149.02118863049097" as="geometry" />
        </mxCell>
        <mxCell id="Iq0m3MXC-721eSM63ZU_-3" value="Electronic Payment&lt;br&gt;Gateway" style="shape=umlActor;verticalLabelPosition=bottom;verticalAlign=top;html=1;strokeWidth=3;fontSize=18;" vertex="1" parent="1">
          <mxGeometry x="2210" y="-659.0002733850129" width="62.932692307692314" height="149.02118863049097" as="geometry" />
        </mxCell>
        <mxCell id="Iq0m3MXC-721eSM63ZU_-5" value="Dilevery" style="shape=umlActor;verticalLabelPosition=bottom;verticalAlign=top;html=1;strokeWidth=3;fontSize=18;" vertex="1" parent="1">
          <mxGeometry x="2210" y="-380.00027338501286" width="62.932692307692314" height="149.02118863049097" as="geometry" />
        </mxCell>
        <mxCell id="Iq0m3MXC-721eSM63ZU_-6" value="Accounting&lt;br&gt;System" style="shape=umlActor;verticalLabelPosition=bottom;verticalAlign=top;html=1;strokeWidth=3;fontSize=18;" vertex="1" parent="1">
          <mxGeometry x="2210" y="-90.00027338501286" width="62.932692307692314" height="149.02118863049097" as="geometry" />
        </mxCell>
        <mxCell id="Iq0m3MXC-721eSM63ZU_-11" style="edgeStyle=orthogonalEdgeStyle;rounded=0;orthogonalLoop=1;jettySize=auto;html=1;exitX=0.5;exitY=0.5;exitDx=0;exitDy=0;exitPerimeter=0;strokeColor=#0000CC;" edge="1" parent="1" source="eCUEvvWyq_-odF-Rzmus-65" target="nWZj0fPjBAsxcXpvG3Y9-24">
          <mxGeometry relative="1" as="geometry">
            <Array as="points">
              <mxPoint x="700" y="-324" />
              <mxPoint x="700" y="-401" />
            </Array>
          </mxGeometry>
        </mxCell>
        <mxCell id="Iq0m3MXC-721eSM63ZU_-13" style="edgeStyle=orthogonalEdgeStyle;rounded=0;orthogonalLoop=1;jettySize=auto;html=1;exitX=1;exitY=0.3333333333333333;exitDx=0;exitDy=0;exitPerimeter=0;entryX=0;entryY=0;entryDx=0;entryDy=0;strokeColor=#0000CC;" edge="1" parent="1" source="eCUEvvWyq_-odF-Rzmus-65" target="nWZj0fPjBAsxcXpvG3Y9-38">
          <mxGeometry relative="1" as="geometry">
            <Array as="points">
              <mxPoint x="320" y="-349" />
              <mxPoint x="320" y="-524" />
              <mxPoint x="890" y="-524" />
              <mxPoint x="890" y="-559" />
            </Array>
          </mxGeometry>
        </mxCell>
        <mxCell id="Iq0m3MXC-721eSM63ZU_-14" style="edgeStyle=orthogonalEdgeStyle;rounded=0;orthogonalLoop=1;jettySize=auto;html=1;exitX=0.5;exitY=0.5;exitDx=0;exitDy=0;exitPerimeter=0;entryX=0.5;entryY=0;entryDx=0;entryDy=0;strokeColor=#0000CC;" edge="1" parent="1" source="eCUEvvWyq_-odF-Rzmus-65" target="nWZj0fPjBAsxcXpvG3Y9-31">
          <mxGeometry relative="1" as="geometry">
            <Array as="points">
              <mxPoint x="162" y="-360" />
              <mxPoint x="1060" y="-360" />
              <mxPoint x="1060" y="-340" />
              <mxPoint x="1243" y="-340" />
            </Array>
          </mxGeometry>
        </mxCell>
        <mxCell id="Iq0m3MXC-721eSM63ZU_-24" style="edgeStyle=orthogonalEdgeStyle;rounded=0;orthogonalLoop=1;jettySize=auto;html=1;exitX=0.5;exitY=0.5;exitDx=0;exitDy=0;exitPerimeter=0;strokeColor=#0000CC;" edge="1" parent="1" source="eCUEvvWyq_-odF-Rzmus-65" target="JJP5QwFVt9YQhAo8LBSv-12">
          <mxGeometry relative="1" as="geometry">
            <Array as="points">
              <mxPoint x="162" y="-300" />
              <mxPoint x="640" y="-300" />
              <mxPoint x="640" y="-30" />
              <mxPoint x="1141" y="-30" />
            </Array>
          </mxGeometry>
        </mxCell>
        <mxCell id="Iq0m3MXC-721eSM63ZU_-36" style="edgeStyle=orthogonalEdgeStyle;rounded=0;orthogonalLoop=1;jettySize=auto;html=1;exitX=1;exitY=1;exitDx=0;exitDy=0;exitPerimeter=0;entryX=0;entryY=1;entryDx=0;entryDy=0;strokeColor=#0000CC;" edge="1" parent="1" source="eCUEvvWyq_-odF-Rzmus-65" target="JJP5QwFVt9YQhAo8LBSv-13">
          <mxGeometry relative="1" as="geometry">
            <Array as="points">
              <mxPoint x="230" y="-250" />
              <mxPoint x="230" y="-43" />
              <mxPoint x="560" y="-43" />
              <mxPoint x="560" y="251" />
            </Array>
          </mxGeometry>
        </mxCell>
        <mxCell id="eCUEvvWyq_-odF-Rzmus-65" value="Restaurant&lt;br&gt;Manager" style="shape=umlActor;verticalLabelPosition=bottom;verticalAlign=top;html=1;strokeWidth=3;fontSize=18;strokeColor=#0000CC;" parent="1" vertex="1">
          <mxGeometry x="130" y="-398.9182320413437" width="62.932692307692314" height="149.02118863049097" as="geometry" />
        </mxCell>
        <mxCell id="eCUEvvWyq_-odF-Rzmus-67" value="Brunch&lt;br&gt;Manager" style="shape=umlActor;verticalLabelPosition=bottom;verticalAlign=top;html=1;strokeWidth=3;fontSize=18;" parent="1" vertex="1">
          <mxGeometry x="130" y="-184.7002733850129" width="62.932692307692314" height="149.02118863049097" as="geometry" />
        </mxCell>
        <mxCell id="eCUEvvWyq_-odF-Rzmus-68" value="Sales&lt;br&gt;&amp;nbsp;Manager" style="shape=umlActor;verticalLabelPosition=bottom;verticalAlign=top;html=1;strokeWidth=3;fontSize=18;strokeColor=#00CC00;" parent="1" vertex="1">
          <mxGeometry x="130" y="20.203860981912158" width="62.932692307692314" height="149.02118863049097" as="geometry" />
        </mxCell>
        <mxCell id="Iq0m3MXC-721eSM63ZU_-16" style="edgeStyle=orthogonalEdgeStyle;rounded=0;orthogonalLoop=1;jettySize=auto;html=1;exitX=0.5;exitY=0.5;exitDx=0;exitDy=0;exitPerimeter=0;strokeColor=#0000CC;entryX=0.333;entryY=0.008;entryDx=0;entryDy=0;entryPerimeter=0;" edge="1" parent="1" target="nWZj0fPjBAsxcXpvG3Y9-68">
          <mxGeometry relative="1" as="geometry">
            <mxPoint x="181" y="-304" as="sourcePoint" />
            <mxPoint x="989" y="-340" as="targetPoint" />
            <Array as="points">
              <mxPoint x="181" y="-280" />
              <mxPoint x="860" y="-280" />
              <mxPoint x="860" y="-146" />
            </Array>
          </mxGeometry>
        </mxCell>
        <mxCell id="Iq0m3MXC-721eSM63ZU_-17" style="edgeStyle=orthogonalEdgeStyle;rounded=0;orthogonalLoop=1;jettySize=auto;html=1;exitX=0.456;exitY=0.581;exitDx=0;exitDy=0;exitPerimeter=0;strokeColor=#0000CC;entryX=0.5;entryY=0;entryDx=0;entryDy=0;" edge="1" parent="1" source="eCUEvvWyq_-odF-Rzmus-65" target="nWZj0fPjBAsxcXpvG3Y9-66">
          <mxGeometry relative="1" as="geometry">
            <mxPoint x="191" y="-294" as="sourcePoint" />
            <mxPoint x="884" y="-136" as="targetPoint" />
            <Array as="points">
              <mxPoint x="250" y="-312" />
              <mxPoint x="250" y="-210" />
              <mxPoint x="830" y="-210" />
              <mxPoint x="830" y="-180" />
              <mxPoint x="1081" y="-180" />
            </Array>
          </mxGeometry>
        </mxCell>
        <mxCell id="Iq0m3MXC-721eSM63ZU_-18" style="edgeStyle=orthogonalEdgeStyle;rounded=0;orthogonalLoop=1;jettySize=auto;html=1;exitX=1;exitY=1;exitDx=0;exitDy=0;exitPerimeter=0;strokeColor=#0000CC;entryX=0;entryY=0;entryDx=0;entryDy=0;" edge="1" parent="1" source="eCUEvvWyq_-odF-Rzmus-65" target="nWZj0fPjBAsxcXpvG3Y9-64">
          <mxGeometry relative="1" as="geometry">
            <mxPoint x="169" y="-302" as="sourcePoint" />
            <mxPoint x="1091" y="-146" as="targetPoint" />
            <Array as="points">
              <mxPoint x="193" y="-302" />
              <mxPoint x="260" y="-302" />
              <mxPoint x="260" y="-230" />
              <mxPoint x="1158" y="-230" />
            </Array>
          </mxGeometry>
        </mxCell>
        <mxCell id="JJP5QwFVt9YQhAo8LBSv-12" value="عرض الموظفين&amp;nbsp;&lt;br&gt;في مطعم" style="ellipse;whiteSpace=wrap;html=1;strokeWidth=1;fillColor=#fad9d5;strokeColor=#ae4132;fontSize=17;perimeterSpacing=0;" parent="1" vertex="1">
          <mxGeometry x="1072.5416346153847" y="6.672368647717349" width="137.30769230769232" height="101.41719781797302" as="geometry" />
        </mxCell>
        <mxCell id="JJP5QwFVt9YQhAo8LBSv-13" value="عرض الموظفين&amp;nbsp;&lt;br&gt;في فرع" style="ellipse;whiteSpace=wrap;html=1;strokeWidth=1;fillColor=#fad9d5;strokeColor=#ae4132;fontSize=17;perimeterSpacing=0;" parent="1" vertex="1">
          <mxGeometry x="1072.5416346153847" y="163.97354707148997" width="137.30769230769232" height="101.41719781797302" as="geometry" />
        </mxCell>
        <mxCell id="JJP5QwFVt9YQhAo8LBSv-14" value="تعديل حساب موظف" style="ellipse;whiteSpace=wrap;html=1;strokeWidth=1;fillColor=#fad9d5;strokeColor=#ae4132;fontSize=17;perimeterSpacing=0;" parent="1" vertex="1">
          <mxGeometry x="1371.4719230769233" y="201.22884422911284" width="137.30769230769232" height="101.41719781797302" as="geometry" />
        </mxCell>
        <mxCell id="JJP5QwFVt9YQhAo8LBSv-17" value="إسناد صلاحية&amp;nbsp;&lt;br&gt;إلى موظف" style="ellipse;whiteSpace=wrap;html=1;strokeWidth=1;fillColor=#fad9d5;strokeColor=#ae4132;fontSize=17;perimeterSpacing=0;" parent="1" vertex="1">
          <mxGeometry x="1605.2219230769233" y="-59.55823587424652" width="137.30769230769232" height="101.41719781797302" as="geometry" />
        </mxCell>
        <mxCell id="JJP5QwFVt9YQhAo8LBSv-18" value="سحب صلاحية&lt;br&gt;من موظف" style="ellipse;whiteSpace=wrap;html=1;strokeWidth=1;fillColor=#fad9d5;strokeColor=#ae4132;fontSize=17;perimeterSpacing=0;" parent="1" vertex="1">
          <mxGeometry x="1605.2219230769233" y="95.8801776916448" width="137.30769230769232" height="101.41719781797302" as="geometry" />
        </mxCell>
        <mxCell id="JJP5QwFVt9YQhAo8LBSv-22" value="Include" style="endArrow=open;endSize=12;dashed=1;html=1;rounded=0;fontSize=17;exitX=1;exitY=0.5;exitDx=0;exitDy=0;entryX=0;entryY=0;entryDx=0;entryDy=0;" parent="1" source="JJP5QwFVt9YQhAo8LBSv-12" target="JJP5QwFVt9YQhAo8LBSv-15" edge="1">
          <mxGeometry width="160" relative="1" as="geometry">
            <mxPoint x="1200.6546153846157" y="14.024080620154791" as="sourcePoint" />
            <mxPoint x="1348.0969230769233" y="-31.613658397932795" as="targetPoint" />
          </mxGeometry>
        </mxCell>
        <mxCell id="JJP5QwFVt9YQhAo8LBSv-23" value="Include" style="endArrow=open;endSize=12;dashed=1;html=1;rounded=0;fontSize=17;entryX=0;entryY=0.5;entryDx=0;entryDy=0;exitX=1;exitY=0.5;exitDx=0;exitDy=0;" parent="1" source="JJP5QwFVt9YQhAo8LBSv-12" target="JJP5QwFVt9YQhAo8LBSv-16" edge="1">
          <mxGeometry width="160" relative="1" as="geometry">
            <mxPoint x="1209.645" y="52.21076020671808" as="sourcePoint" />
            <mxPoint x="1393.0488461538462" y="24.26928733850127" as="targetPoint" />
          </mxGeometry>
        </mxCell>
        <mxCell id="JJP5QwFVt9YQhAo8LBSv-24" value="Include" style="endArrow=open;endSize=12;dashed=1;html=1;rounded=0;fontSize=17;entryX=0;entryY=0;entryDx=0;entryDy=0;exitX=1;exitY=0.5;exitDx=0;exitDy=0;" parent="1" source="JJP5QwFVt9YQhAo8LBSv-12" target="JJP5QwFVt9YQhAo8LBSv-14" edge="1">
          <mxGeometry width="160" relative="1" as="geometry">
            <mxPoint x="1200.6546153846157" y="98.77988165374677" as="sourcePoint" />
            <mxPoint x="1412.8276923076924" y="154.66282739018084" as="targetPoint" />
          </mxGeometry>
        </mxCell>
        <mxCell id="JJP5QwFVt9YQhAo8LBSv-27" value="Include" style="endArrow=open;endSize=12;dashed=1;html=1;rounded=0;fontSize=17;entryX=0;entryY=0.5;entryDx=0;entryDy=0;exitX=1;exitY=0.5;exitDx=0;exitDy=0;" parent="1" source="JJP5QwFVt9YQhAo8LBSv-13" target="JJP5QwFVt9YQhAo8LBSv-14" edge="1">
          <mxGeometry width="160" relative="1" as="geometry">
            <mxPoint x="1218.6353846153847" y="67.11287906976736" as="sourcePoint" />
            <mxPoint x="1364.2796153846157" y="253.389364857881" as="targetPoint" />
          </mxGeometry>
        </mxCell>
        <mxCell id="JJP5QwFVt9YQhAo8LBSv-32" value="Include" style="endArrow=open;endSize=12;dashed=1;html=1;rounded=0;fontSize=17;entryX=0;entryY=0.5;entryDx=0;entryDy=0;exitX=1;exitY=0;exitDx=0;exitDy=0;" parent="1" source="JJP5QwFVt9YQhAo8LBSv-16" target="JJP5QwFVt9YQhAo8LBSv-17" edge="1">
          <mxGeometry width="160" relative="1" as="geometry">
            <mxPoint x="1515.3180769230771" y="7.504403617570915" as="sourcePoint" />
            <mxPoint x="1653.77" y="80.15223307493534" as="targetPoint" />
          </mxGeometry>
        </mxCell>
        <mxCell id="JJP5QwFVt9YQhAo8LBSv-33" value="Include" style="endArrow=open;endSize=12;dashed=1;html=1;rounded=0;fontSize=17;exitX=1;exitY=0;exitDx=0;exitDy=0;entryX=0;entryY=1;entryDx=0;entryDy=0;" parent="1" source="JJP5QwFVt9YQhAo8LBSv-13" target="JJP5QwFVt9YQhAo8LBSv-15" edge="1">
          <mxGeometry width="160" relative="1" as="geometry">
            <mxPoint x="1218.6353846153847" y="67.11287906976736" as="sourcePoint" />
            <mxPoint x="1376.8661538461538" y="-91.22213385012924" as="targetPoint" />
          </mxGeometry>
        </mxCell>
        <mxCell id="JJP5QwFVt9YQhAo8LBSv-34" value="Include" style="endArrow=open;endSize=12;dashed=1;html=1;rounded=0;fontSize=17;exitX=0.999;exitY=0.367;exitDx=0;exitDy=0;entryX=0.426;entryY=1.019;entryDx=0;entryDy=0;exitPerimeter=0;entryPerimeter=0;" parent="1" source="JJP5QwFVt9YQhAo8LBSv-13" target="JJP5QwFVt9YQhAo8LBSv-16" edge="1">
          <mxGeometry width="160" relative="1" as="geometry">
            <mxPoint x="1263.5873076923078" y="334.4196361757106" as="sourcePoint" />
            <mxPoint x="1441.5969230769233" y="126.7213545219638" as="targetPoint" />
          </mxGeometry>
        </mxCell>
        <mxCell id="JJP5QwFVt9YQhAo8LBSv-36" value="Include" style="endArrow=open;endSize=12;dashed=1;html=1;rounded=0;fontSize=17;exitX=1;exitY=1;exitDx=0;exitDy=0;entryX=0;entryY=0.5;entryDx=0;entryDy=0;" parent="1" source="JJP5QwFVt9YQhAo8LBSv-16" target="JJP5QwFVt9YQhAo8LBSv-18" edge="1">
          <mxGeometry width="160" relative="1" as="geometry">
            <mxPoint x="1527.0055769230771" y="54.07352506459938" as="sourcePoint" />
            <mxPoint x="1533.2988461538462" y="173.29047596899204" as="targetPoint" />
          </mxGeometry>
        </mxCell>
        <mxCell id="Iq0m3MXC-721eSM63ZU_-33" value="&lt;font style=&quot;font-size: 17px;&quot;&gt;Extends&lt;/font&gt;" style="endArrow=block;endSize=16;endFill=0;html=1;rounded=0;exitX=0;exitY=0.5;exitDx=0;exitDy=0;entryX=1;entryY=0;entryDx=0;entryDy=0;" edge="1" parent="1" source="JJP5QwFVt9YQhAo8LBSv-12" target="JJP5QwFVt9YQhAo8LBSv-11">
          <mxGeometry width="160" relative="1" as="geometry">
            <mxPoint x="1080" y="-80" as="sourcePoint" />
            <mxPoint x="1240" y="-80" as="targetPoint" />
          </mxGeometry>
        </mxCell>
        <mxCell id="Iq0m3MXC-721eSM63ZU_-35" value="&lt;font style=&quot;font-size: 17px;&quot;&gt;Extends&lt;/font&gt;" style="endArrow=block;endSize=16;endFill=0;html=1;rounded=0;exitX=0;exitY=0.5;exitDx=0;exitDy=0;entryX=0.779;entryY=1.012;entryDx=0;entryDy=0;entryPerimeter=0;" edge="1" parent="1" source="JJP5QwFVt9YQhAo8LBSv-13" target="JJP5QwFVt9YQhAo8LBSv-11">
          <mxGeometry width="160" relative="1" as="geometry">
            <mxPoint x="1083" y="67" as="sourcePoint" />
            <mxPoint x="967" y="85" as="targetPoint" />
          </mxGeometry>
        </mxCell>
      </root>
    </mxGraphModel>
  </diagram>
</mxfile>
